<svg width="48" height="48" viewBox="0 0 48 48" fill="none" xmlns="http://www.w3.org/2000/svg">
<path fill-rule="evenodd" clip-rule="evenodd" d="M22.9681 27.3595L23.3993 25H21.0007H19.3694C18.9592 25 18.4138 24.7756 17.8965 24.0653C17.3805 23.3567 17 22.2794 17 21C17 19.7205 17.3805 18.6433 17.8965 17.9347C18.4138 17.2243 18.9592 17 19.3694 17H27V25.0852L26.5166 26.2109L24.7981 30.2132C24.6856 30.3846 24.4295 30.6025 24.0021 30.7224C23.5321 30.8544 23.1339 30.7874 22.9319 30.6797C22.637 30.5225 22.5267 30.4036 22.4943 30.3631C22.4707 30.3336 22.4674 30.3223 22.4627 30.2988C22.4542 30.256 22.4444 30.1572 22.4681 29.9599C22.493 29.7522 22.5417 29.5268 22.6158 29.1953L22.6188 29.1816C22.6566 29.0127 22.7022 28.809 22.7406 28.6042L22.7407 28.6043L22.7424 28.5945L22.9681 27.3595ZM21.9911 32.4446C23.4792 33.2379 25.7741 32.6393 26.5906 31.1077L28.3544 27L29 27H32C32.5523 27 33 26.5523 33 26V16C33 15.4477 32.5523 15 32 15L29 15H27H19.3694C16.9563 15 15 17.6863 15 21C15 24.1298 16.7451 26.6998 18.9721 26.9755C19.1029 26.9917 19.2355 27 19.3694 27H21.0007L20.775 28.235C20.7429 28.4058 20.7038 28.5809 20.664 28.759L20.6639 28.7594C20.6461 28.8391 20.6281 28.9193 20.6106 29C20.3519 30.1938 20.1909 31.485 21.9911 32.4446ZM31 17V25H29V17H31Z" fill="#333333"/>
</svg>
