<svg width="48" height="48" viewBox="0 0 48 48" fill="none" xmlns="http://www.w3.org/2000/svg">
<path fill-rule="evenodd" clip-rule="evenodd" d="M25.0319 20.6405L24.6007 23H26.9993H28.6306C29.0408 23 29.5862 23.2244 30.1035 23.9347C30.6195 24.6433 31 25.7206 31 27C31 28.2795 30.6195 29.3567 30.1035 30.0653C29.5862 30.7757 29.0408 31 28.6306 31H21V22.9148L21.4834 21.7891L23.2019 17.7868C23.3144 17.6154 23.5705 17.3975 23.9979 17.2776C24.4679 17.1456 24.8661 17.2126 25.0681 17.3203C25.363 17.4775 25.4733 17.5964 25.5057 17.6369C25.5293 17.6664 25.5326 17.6777 25.5373 17.7012C25.5458 17.744 25.5556 17.8428 25.5319 18.0401C25.507 18.2478 25.4583 18.4732 25.3842 18.8047L25.3812 18.8184C25.3434 18.9873 25.2978 19.191 25.2594 19.3958L25.2593 19.3957L25.2576 19.4055L25.0319 20.6405ZM26.0089 15.5554C24.5208 14.7621 22.2259 15.3607 21.4094 16.8923L19.6456 21L19 21H16C15.4477 21 15 21.4477 15 22V32C15 32.5523 15.4477 33 16 33L19 33H21H28.6306C31.0437 33 33 30.3137 33 27C33 23.8702 31.2549 21.3002 29.0279 21.0245C28.8971 21.0083 28.7645 21 28.6306 21H26.9993L27.225 19.765C27.2571 19.5942 27.2962 19.4191 27.336 19.241L27.3361 19.2406C27.3539 19.1609 27.3719 19.0807 27.3894 19C27.6481 17.8062 27.8091 16.515 26.0089 15.5554ZM17 31V23H19V31H17Z" fill="#333333"/>
</svg>
